<svg xmlns="http://www.w3.org/2000/svg" viewBox="0 0 640 640"><defs><linearGradient id="s" x1="0" y1="0" x2="1" y2="1"><stop stop-color="#f8f6f4"/><stop offset=".42" stop-color="#c9c5c9"/><stop offset=".7" stop-color="#85818a"/><stop offset="1" stop-color="#f0edef"/></linearGradient><linearGradient id="p" x1="0" y1="1" x2="1" y2="0"><stop stop-color="#c83f73"/><stop offset=".5" stop-color="#ed78a2"/><stop offset="1" stop-color="#ffb0c9"/></linearGradient></defs><circle cx="320" cy="320" r="285" fill="#17151a" stroke="#403b43" stroke-width="10"/><path d="M150 480C235 452 251 400 246 345C240 282 267 213 329 164C352 146 383 137 420 143C397 161 382 181 379 207C426 225 457 261 459 309C462 381 411 438 344 462C294 480 219 488 150 480Z" fill="url(#s)" stroke="#4b4750" stroke-width="9"/><path d="M377 207C360 185 363 154 391 119C410 96 433 84 461 80C449 108 448 130 461 153C476 180 494 199 520 215C484 217 447 213 417 201" fill="url(#s)" stroke="#4b4750" stroke-width="9"/><path d="M164 454C244 451 305 430 342 397C381 363 396 318 382 278C371 247 350 229 326 216C361 218 399 236 420 263C447 299 445 346 424 383C387 449 286 478 164 454Z" fill="none" stroke="url(#p)" stroke-width="24" stroke-linecap="round"/><path d="M134 494C236 519 357 511 437 462C490 430 527 386 548 333" fill="none" stroke="url(#p)" stroke-width="14" stroke-linecap="round"/><circle cx="414" cy="177" r="10" fill="#17151a" stroke="#ed78a2" stroke-width="5"/></svg>