<svg xmlns="http://www.w3.org/2000/svg" viewBox="0 0 640 640" role="img" aria-labelledby="title desc">
  <title id="title">Swift Chess logo</title>
  <desc id="desc">A stylized steel chess knight wrapped by a sweeping pink swift-shaped curve.</desc>
  <defs>
    <linearGradient id="steel" x1="0" y1="0" x2="1" y2="1">
      <stop offset="0" stop-color="#f8f6f4"/>
      <stop offset="0.42" stop-color="#c9c5c9"/>
      <stop offset="0.7" stop-color="#85818a"/>
      <stop offset="1" stop-color="#f0edef"/>
    </linearGradient>
    <linearGradient id="pink" x1="0" y1="1" x2="1" y2="0">
      <stop offset="0" stop-color="#c83f73"/>
      <stop offset="0.5" stop-color="#ed78a2"/>
      <stop offset="1" stop-color="#ffb0c9"/>
    </linearGradient>
    <filter id="shadow" x="-30%" y="-30%" width="160%" height="160%">
      <feDropShadow dx="0" dy="14" stdDeviation="12" flood-color="#17151a" flood-opacity=".32"/>
    </filter>
  </defs>
  <circle cx="320" cy="320" r="285" fill="#17151a" stroke="#403b43" stroke-width="10"/>
  <circle cx="320" cy="320" r="252" fill="none" stroke="#706a73" stroke-opacity=".45" stroke-width="2"/>
  <path d="M150 480 C235 452 251 400 246 345 C240 282 267 213 329 164 C352 146 383 137 420 143 C397 161 382 181 379 207 C426 225 457 261 459 309 C462 381 411 438 344 462 C294 480 219 488 150 480Z" fill="url(#steel)" stroke="#4b4750" stroke-width="9" stroke-linejoin="round" filter="url(#shadow)"/>
  <path d="M377 207 C360 185 363 154 391 119 C410 96 433 84 461 80 C449 108 448 130 461 153 C476 180 494 199 520 215 C484 217 447 213 417 201" fill="url(#steel)" stroke="#4b4750" stroke-width="9" stroke-linejoin="round"/>
  <path d="M292 249 C323 225 360 218 396 229 C369 239 351 257 343 279 C326 325 330 367 359 403 C326 392 298 370 284 341 C269 310 271 273 292 249Z" fill="#aaa6ad" opacity=".72"/>
  <path d="M164 454 C244 451 305 430 342 397 C381 363 396 318 382 278 C371 247 350 229 326 216 C361 218 399 236 420 263 C447 299 445 346 424 383 C387 449 286 478 164 454Z" fill="none" stroke="url(#pink)" stroke-width="24" stroke-linecap="round"/>
  <path d="M134 494 C236 519 357 511 437 462 C490 430 527 386 548 333" fill="none" stroke="url(#pink)" stroke-width="14" stroke-linecap="round" opacity=".9"/>
  <path d="M166 496 C254 511 356 501 428 460" fill="none" stroke="#ffd3e0" stroke-width="3" stroke-linecap="round" opacity=".8"/>
  <circle cx="414" cy="177" r="10" fill="#17151a" stroke="#ed78a2" stroke-width="5"/>
</svg>
